HIERARCHY
ROOT ROOT
{
	OFFSET 0.000000 56.020000 -5.659234
	CHANNELS 6 Xposition Yposition Zposition Xrotation Yrotation Zrotation 
	JOINT C_spine0001_bind_JNT
	{
		OFFSET 0.000000 1.618999 0.000000
		CHANNELS 3 Xrotation Yrotation Zrotation
		JOINT C_spine0002_bind_JNT
		{
			OFFSET 0.000000 4.942001 0.000001
			CHANNELS 3 Xrotation Yrotation Zrotation
			JOINT C_spine0003_bind_JNT
			{
				OFFSET 0.000000 4.942001 -0.000000
				CHANNELS 3 Xrotation Yrotation Zrotation
				JOINT C_neck0001_bind_JNT
				{
					OFFSET 0.000000 17.026009 -0.000000
					CHANNELS 3 Xrotation Yrotation Zrotation
					JOINT C_neck0002_bind_JNT
					{
						OFFSET 0.000000 3.249985 0.000000
						CHANNELS 3 Xrotation Yrotation Zrotation
						JOINT C_head_bind_JNT
						{
							OFFSET 0.000000 5.278008 0.000000
							CHANNELS 3 Xrotation Yrotation Zrotation
							End Site
							{
								OFFSET 0.000000 0.000000 0.000000
							}
						}
					}
				}
				JOINT L_clavicle_bind_JNT
				{
					OFFSET 4.590000 12.067001 0.834000
					CHANNELS 3 Xrotation Yrotation Zrotation
					JOINT L_armUpper0001_bind_JNT
					{
						OFFSET 7.812635 0.512001 -3.452945
						CHANNELS 3 Xrotation Yrotation Zrotation
						JOINT L_armLower0001_bind_JNT
						{
							OFFSET 15.265892 -6.552116 -0.058157
							CHANNELS 3 Xrotation Yrotation Zrotation
							JOINT L_hand0001_bind_JNT
							{
								OFFSET 14.747667 -6.369995 5.049225
								CHANNELS 3 Xrotation Yrotation Zrotation
								End Site
								{
									OFFSET 0.000000 0.000000 0.000000
								}
							}
						}
					}
				}
				JOINT R_clavicle_bind_JNT
				{
					OFFSET -4.590000 12.067001 0.834000
					CHANNELS 3 Xrotation Yrotation Zrotation
					JOINT R_armUpper0001_bind_JNT
					{
						OFFSET -7.812635 0.512001 -3.452945
						CHANNELS 3 Xrotation Yrotation Zrotation
						JOINT R_armLower0001_bind_JNT
						{
							OFFSET -15.265890 -6.552124 -0.058160
							CHANNELS 3 Xrotation Yrotation Zrotation
							JOINT R_hand0001_bind_JNT
							{
								OFFSET -14.746784 -6.369629 5.048937
								CHANNELS 3 Xrotation Yrotation Zrotation
								End Site
								{
									OFFSET 0.000000 0.000000 0.000000
								}
							}
						}
					}
				}
			}
		}
	}
	JOINT C_pelvis0001_bind_JNT
	{
		OFFSET -0.000000 0.000000 0.000000
		CHANNELS 3 Xrotation Yrotation Zrotation
		JOINT L_legUpper0001_bind_JNT
		{
			OFFSET 6.599999 -6.027000 0.539000
			CHANNELS 3 Xrotation Yrotation Zrotation
			JOINT L_legLower0001_bind_JNT
			{
				OFFSET -0.140713 -19.187443 0.040261
				CHANNELS 3 Xrotation Yrotation Zrotation
				JOINT L_foot0001_bind_JNT
				{
					OFFSET -0.132215 -18.028637 -1.138370
					CHANNELS 3 Xrotation Yrotation Zrotation
					JOINT L_foot0002_bind_JNT
					{
						OFFSET 0.007014 -4.693133 9.886524
						CHANNELS 3 Xrotation Yrotation Zrotation
						End Site
						{
							OFFSET 0.000000 0.000000 0.000000
						}
					}
				}
			}
		}
		JOINT R_legUpper0001_bind_JNT
		{
			OFFSET -6.599999 -6.027000 0.539000
			CHANNELS 3 Xrotation Yrotation Zrotation
			JOINT R_legLower0001_bind_JNT
			{
				OFFSET 0.140710 -19.187164 0.040550
				CHANNELS 3 Xrotation Yrotation Zrotation
				JOINT R_foot0001_bind_JNT
				{
					OFFSET 0.132215 -18.028633 -1.138362
					CHANNELS 3 Xrotation Yrotation Zrotation
					JOINT R_foot0002_bind_JNT
					{
						OFFSET -0.007014 -4.693128 9.886505
						CHANNELS 3 Xrotation Yrotation Zrotation
						End Site
						{
							OFFSET 0.000000 0.000000 0.000000
						}
					}
				}
			}
		}
	}
}
MOTION
Frames: 14
Frame Time: 0.033333
0.000000 49.142529 0.000000 -179.986328 -4.028164 179.995010 -177.073212 6.342511 178.198120 2.746667 2.911916 0.572412 1.474141 2.563380 0.467197 -1.403387 0.215038 1.617188 2.929002 0.584871 -1.419899 26.333515 -0.866298 -2.812808 1.240204 10.988024 -5.535722 -6.559605 2.294915 -60.867638 25.707268 0.548455 6.166552 -3.591903 -29.662205 -24.054781 2.604369 -19.982172 4.185079 -6.728028 2.633147 61.401356 25.955379 -1.498182 -6.955710 -4.125075 26.518745 28.621033 -177.550430 6.713226 178.712265 12.322585 -0.500878 -0.458726 -4.595293 4.713657 0.541429 -4.037845 2.655705 -0.023340 -1.412719 -0.096432 0.276593 2.106517 -0.389288 2.250024 0.743155 -1.044182 -0.534332 -0.042594 -4.558119 0.127309 -1.133022 0.376402 -0.092084 
0.370110 49.061771 -0.173465 -179.988495 -3.695115 179.989777 -176.562485 6.124157 178.084976 3.071721 2.995699 0.606733 2.038697 2.984888 0.548491 -2.518995 -0.344698 1.446614 3.530300 0.945648 -0.829958 26.264467 -1.445978 -3.041975 0.875431 10.300920 -5.631336 -5.977492 2.815509 -60.911289 25.601006 -0.108071 6.138826 -3.616889 -29.893677 -24.176456 1.867952 -20.192579 4.152976 -6.016749 2.433450 61.148392 26.089285 0.227883 -7.080802 -5.793404 24.866060 28.856300 -176.693512 6.530626 178.664886 13.046300 -0.130079 -1.114551 -4.349868 5.757641 0.334730 -4.328033 1.484863 0.090122 -1.072042 -0.031196 0.125758 2.818449 -0.387965 1.781567 0.776348 -1.134144 -0.245140 -0.313486 -4.654187 -0.352268 -0.476490 0.045776 0.344475 
0.159894 49.041962 -0.089289 -179.995590 -4.094635 179.995209 -176.838135 6.355215 178.220963 2.996984 3.112584 0.610019 1.931882 2.987064 0.483472 -2.260922 -0.426335 1.325188 3.505966 0.966244 -0.807210 26.591274 -1.686426 -3.021937 0.883815 10.393085 -5.955964 -6.378813 2.510372 -60.683426 25.520472 0.058890 5.918037 -3.960231 -30.253788 -24.097797 1.761358 -20.380569 4.053718 -6.130296 2.796673 61.307003 25.969200 0.392481 -6.895672 -5.334802 24.443947 27.993063 -177.019867 6.786513 178.807419 13.145320 -0.115939 -0.831871 -4.956732 5.649728 0.265829 -4.147373 1.370628 0.049072 -0.912124 -0.216411 -0.013878 2.603437 -0.475697 1.817185 0.670299 -0.745130 -0.182044 -0.304751 -4.865698 -0.425639 -0.266073 0.101363 0.154436 
0.185883 49.028004 -0.106127 -179.991623 -4.186388 179.987473 -176.797318 6.152152 178.290771 3.034625 3.067954 0.524259 1.913423 2.968397 0.516756 -2.179102 -0.365130 1.305364 3.543022 0.942004 -0.863627 26.343235 -1.696050 -2.962399 0.966521 10.444321 -6.014623 -6.571177 2.242951 -60.564514 25.455820 -0.041144 5.693857 -4.107708 -30.174948 -23.994139 1.787435 -20.330320 4.141995 -6.327424 2.808797 61.312946 26.289555 0.277270 -6.800777 -5.531080 24.522465 27.690842 -177.171143 6.600217 178.837936 13.056094 -0.322605 -0.608031 -4.881660 5.982687 0.090120 -4.395220 1.332686 -0.027573 -0.822526 -0.122497 0.024827 2.253994 -0.280586 1.673686 0.717261 -1.024129 -0.029207 -0.159223 -4.503013 -0.404955 -0.321169 -0.018364 0.155077 
0.209010 49.053204 -0.080359 -179.988800 -4.702361 179.988541 -176.877686 6.448693 178.247650 3.002048 3.091715 0.562440 1.830827 2.975811 0.491547 -2.029992 -0.388775 1.391004 3.478395 0.820456 -0.864007 26.372967 -1.856578 -3.180998 0.903471 10.357341 -6.060074 -6.628104 2.030542 -60.351582 25.331163 -0.157191 5.535678 -3.856021 -30.113373 -23.860067 1.627635 -20.276178 4.132570 -6.352098 2.821398 61.359390 26.564415 0.274060 -6.828718 -5.633768 24.423264 27.571823 -177.265045 7.008645 178.874954 13.232682 -0.240492 -0.573544 -5.078966 6.107704 0.054265 -4.364736 1.369565 -0.121602 -0.959104 -0.157480 -0.080766 2.165501 -0.146761 1.541478 0.666029 -1.074467 0.096670 -0.139394 -4.754530 -0.400045 -0.217711 0.157587 0.159662 
0.208327 49.049599 -0.059946 -179.989319 -4.966684 179.994370 -176.819916 6.513396 178.267731 3.067592 3.111829 0.554751 1.811136 2.935071 0.547227 -2.062682 -0.345294 1.437045 3.493997 0.664666 -0.915047 26.136175 -1.871217 -3.242880 0.867602 10.343995 -6.112751 -6.556469 2.011801 -60.246937 25.396624 -0.371851 5.408985 -3.863953 -30.052837 -23.869318 1.625569 -20.243652 4.029346 -6.382987 2.717599 61.530281 26.806490 0.380826 -7.071530 -5.771455 24.354080 27.520115 -177.213577 7.033645 178.913010 13.165440 -0.223446 -0.566802 -4.917356 6.143120 0.026539 -4.443686 1.265521 -0.208001 -0.821736 -0.085852 -0.027613 2.329154 -0.112812 1.527370 0.574432 -1.127061 0.036332 -0.074852 -4.692882 -0.349415 -0.328278 0.141357 0.163367 
0.213384 49.035347 -0.046133 -179.991577 -5.171414 179.986725 -176.827011 6.504851 178.212387 3.113880 3.132102 0.602140 1.779999 3.021814 0.545652 -2.125318 -0.391282 1.470766 3.463487 0.424859 -0.918476 26.103569 -1.777615 -3.299252 0.854900 10.131075 -6.066142 -6.607239 2.045072 -60.288853 25.538960 -0.402358 5.337717 -3.832901 -30.019482 -23.727362 1.606523 -20.324114 4.139743 -6.461035 2.775668 61.363209 26.920925 0.354342 -7.151248 -5.894772 24.222507 27.628471 -177.277542 6.969851 178.952728 13.118353 -0.275985 -0.596150 -4.819235 6.217427 -0.004497 -4.504988 1.162890 -0.205971 -0.908380 -0.061509 -0.073727 2.224686 -0.066019 1.487232 0.598263 -1.171972 0.001518 -0.055577 -4.723332 -0.359106 -0.314793 0.162197 0.168806 
0.227544 49.061024 -0.029087 -179.992065 -5.236280 179.988449 -176.773621 6.396209 178.248322 3.160722 3.106307 0.563651 1.728690 3.056257 0.650663 -2.126853 -0.453905 1.498738 3.466674 0.500243 -1.002896 26.163813 -1.856277 -3.260216 0.869206 10.229498 -6.155671 -6.509835 2.011263 -60.334610 25.599684 -0.392223 5.388330 -3.716351 -30.050159 -23.751919 1.538475 -20.223196 3.937876 -6.425497 2.837049 61.437153 26.831339 0.242750 -7.156206 -5.701864 24.225197 27.434052 -177.214401 6.841390 178.933838 13.193141 -0.176703 -0.611229 -4.926904 6.157038 0.005986 -4.376105 1.154939 -0.229056 -0.893577 -0.099498 -0.085196 2.408843 -0.033838 1.559189 0.623226 -1.169848 -0.129686 -0.184888 -4.739714 -0.293082 -0.327871 0.142297 0.173666 
0.252500 49.084278 -0.016260 -179.990677 -5.430857 179.987457 -176.676498 6.388183 178.189697 3.239834 3.166069 0.620672 1.755544 3.025840 0.634228 -2.100736 -0.379782 1.504961 3.432935 0.339743 -0.960638 26.249178 -1.878862 -3.248862 0.918492 10.257117 -6.194622 -6.612212 2.029598 -60.383686 25.830936 -0.287698 5.436215 -3.696617 -30.171953 -23.745087 1.455255 -20.232859 3.931696 -6.395448 2.857404 61.309586 26.786428 0.284096 -7.149077 -5.570814 24.192177 27.417330 -177.225632 6.782130 178.887146 13.048253 -0.136147 -0.623128 -4.842095 6.088717 0.031974 -4.416471 1.115698 -0.134439 -0.874574 -0.111419 -0.117432 2.490765 0.022501 1.634132 0.646098 -1.221823 -0.187162 -0.344098 -4.831436 -0.348485 -0.322202 0.080268 0.224598 
0.285024 49.112228 -0.006973 -179.994385 -5.711641 179.989685 -176.639221 6.501654 178.182175 3.265743 3.185497 0.627120 1.798913 3.092458 0.609470 -2.005156 -0.490154 1.561681 3.377600 0.363526 -0.978490 26.222040 -1.902594 -3.260670 0.883760 10.172627 -6.168937 -6.519061 2.135496 -60.427826 25.869539 -0.250562 5.532385 -3.668237 -30.197693 -23.724741 1.467695 -20.273581 4.014438 -6.509095 2.891018 61.281963 26.725943 0.310203 -7.122851 -5.477281 24.203844 27.258375 -177.239136 6.956020 178.886597 12.980609 -0.058291 -0.673517 -4.832140 6.039653 0.050437 -4.284638 1.128661 -0.164310 -0.966642 -0.128673 -0.084030 2.564360 0.089448 1.588010 0.661739 -1.305776 -0.215105 -0.406506 -4.931757 -0.287403 -0.330334 0.125872 0.225559 
0.326330 49.116486 -0.003852 -179.989822 -5.830115 179.989807 -176.568817 6.556630 178.150528 3.325092 3.235825 0.659238 1.821549 3.073292 0.649825 -1.961957 -0.374635 1.530476 3.389053 0.329661 -0.981551 26.225203 -1.875366 -3.236928 0.888498 10.306127 -6.195999 -6.436165 2.211671 -60.457745 25.952887 -0.239518 5.577903 -3.601835 -30.336044 -23.734539 1.448911 -20.172604 3.944583 -6.522638 2.867239 61.248852 26.580286 0.457016 -7.118645 -5.414367 24.282997 27.218901 -177.214203 6.962883 178.875061 12.864460 -0.043322 -0.643337 -4.680645 5.997315 -0.096987 -4.326820 1.080871 -0.023589 -0.949848 -0.091844 -0.090076 2.575206 0.124169 1.495508 0.794747 -1.391702 -0.132088 -0.504503 -4.916747 -0.273462 -0.343955 0.114728 0.265144 
0.379177 49.093044 -0.004998 -179.992645 -5.827405 179.989685 -176.612350 6.478074 178.193222 3.345950 3.241561 0.623704 1.814105 3.124674 0.637835 -1.843950 -0.421055 1.538725 3.362492 0.393481 -0.977359 26.241570 -1.843368 -3.248894 0.932938 10.293954 -6.196117 -6.420770 2.300332 -60.513916 25.955557 -0.319757 5.617070 -3.618860 -30.351112 -23.721539 1.411895 -20.108562 3.907747 -6.594792 2.866368 61.256126 26.551706 0.445534 -7.084650 -5.425960 24.369947 27.130716 -177.216782 6.899460 178.868195 12.711139 0.009531 -0.698799 -4.523984 5.857330 -0.064020 -4.285616 1.117377 0.014801 -1.013679 -0.133900 -0.094794 2.634400 0.177272 1.427043 0.827862 -1.408993 -0.155033 -0.580385 -4.977779 -0.160683 -0.330432 0.165874 0.229990 
0.442313 49.108738 -0.010703 -179.991058 -5.645935 179.989563 -176.639114 6.260592 178.201492 3.336861 3.272793 0.620561 1.875028 3.149768 0.647887 -1.833066 -0.353982 1.498286 3.381429 0.386426 -0.955415 26.267275 -1.767085 -3.223956 0.876843 10.415380 -6.192508 -6.397058 2.317510 -60.584778 26.083282 -0.442862 5.638797 -3.730023 -30.412710 -23.774216 1.439818 -20.034512 3.910615 -6.680405 2.849597 61.280754 26.514730 0.478026 -7.140549 -5.403616 24.511335 27.170504 -177.237167 6.634084 178.895493 12.515676 -0.043413 -0.772885 -4.353558 5.809863 -0.103441 -4.326900 1.188268 0.135606 -0.990336 -0.129437 -0.129232 2.573705 0.185503 1.215062 1.047711 -1.359684 -0.064908 -0.716979 -4.889629 -0.013504 -0.363942 0.123898 0.227691 
0.512844 49.098881 -0.022680 -179.989792 -5.692400 179.986588 -176.619034 6.223905 178.240829 3.354290 3.277235 0.624534 1.928026 3.157657 0.609691 -1.743521 -0.357519 1.475140 3.375746 0.424348 -0.981973 26.229136 -1.762421 -3.174829 0.915003 10.433008 -6.228077 -6.390276 2.349520 -60.607033 26.093327 -0.525732 5.617282 -3.877766 -30.497936 -23.802502 1.399348 -19.946226 3.931821 -6.700900 2.913271 61.206051 26.385937 0.460132 -7.148478 -5.356123 24.587421 27.173401 -177.239746 6.611835 178.892471 12.372872 -0.042526 -0.775239 -4.187604 5.675746 -0.152374 -4.378869 1.238971 0.196046 -0.932268 -0.078734 -0.113002 2.553314 0.243500 1.100537 1.100627 -1.292380 -0.039070 -0.714599 -4.988816 0.090323 -0.380777 0.167316 0.235343 
